<svg version="1.0" viewBox="0 0 100 100" xmlns="http://www.w3.org/2000/svg">
    <path fill="#fff" fill-opacity=".5" d="M90.088 2.08a3.368 3.368 0 0 0-3.366 3.369V19.38a3.35 3.35 0 0 0 1.768 2.947 3.358 3.358 0 0 0-1.501 2.799v13.932c0 1.461.935 2.696 2.235 3.162a3.356 3.356 0 0 0-2.235 3.157V59.31c0 1.39.843 2.583 2.044 3.097a3.354 3.354 0 0 0-1.71 2.917v13.933a3.366 3.366 0 0 0 3.367 3.367h32.432a3.366 3.366 0 0 0 3.367-3.367V65.325a3.349 3.349 0 0 0-1.304-2.645h13.382a3.37 3.37 0 0 0 3.37-3.37V45.379c0-1.28-.723-2.38-1.776-2.95h13.307a3.37 3.37 0 0 0 3.368-3.369V25.127c0-.93-.377-1.77-.985-2.379h15.253a3.366 3.366 0 0 0 3.367-3.367V5.45c0-1.86-1.507-3.37-3.367-3.37z" transform="matrix(.99865 0 0 1.10367 -79.925 4.627)" style="fill:#fff;fill-opacity:.5"/>
    <path d="M13.74 10.45a2.83 2.736 0 0 0-2.83 2.736v11.322a2.83 2.736 0 0 0 2.83 2.736h73.998a2.83 2.736 0 0 0 2.83-2.736V13.186a2.83 2.736 0 0 0-2.83-2.737ZM13.966 30.937c-1.564 0-2.83 1.305-2.83 2.913v12.052c0 1.609 1.267 2.913 2.83 2.913h55.999c1.563 0 2.83-1.304 2.83-2.913V33.85c0-1.608-1.267-2.913-2.83-2.913zM13.908 52.312c-1.564 0-2.83 1.37-2.83 3.062v12.665c0 1.69 1.267 3.06 2.83 3.06h40.998c1.564 0 2.83-1.37 2.83-3.06V55.374c.001-1.691-1.266-3.062-2.83-3.062zM14.246 74.986a2.827 2.827 0 0 0-2.83 2.823v11.684a2.827 2.827 0 0 0 2.83 2.823h24.92a2.827 2.827 0 0 0 2.83-2.823V77.808a2.827 2.827 0 0 0-2.83-2.822z"/>
</svg>
